<mxfile host="app.diagrams.net" modified="2024-05-19T02:13:11.242Z" agent="Mozilla/5.0 (X11; Ubuntu; Linux x86_64; rv:126.0) Gecko/20100101 Firefox/126.0" version="24.3.1" etag="jX5OVJVZL8i44_qtlvEj" type="github">
  <diagram name="Page-1" id="rACyecbDCCsTYDg5sD9J">
    <mxGraphModel>
      <root>
        <mxCell id="0" />
        <mxCell id="1" parent="0" />
      </root>
    </mxGraphModel>
  </diagram>
</mxfile>
